<!-- Generated by IcoMoon.io -->
<svg version="1.1" xmlns="http://www.w3.org/2000/svg" width="32" height="32" viewBox="0 0 32 32">
<title>cerrar</title>
<path d="M16 14.41l14.112-14.112c0.397-0.397 1.192-0.397 1.59 0s0.397 1.192 0 1.59l-14.112 14.112 14.112 14.112c0.397 0.397 0.397 1.192 0 1.59s-1.192 0.397-1.59 0l-14.112-14.31-14.112 14.112c-0.397 0.397-1.192 0.397-1.59 0s-0.397-1.192 0-1.59l14.112-14.112-13.912-13.912c-0.397-0.397-0.397-1.192 0-1.59s1.192-0.397 1.59 0l13.912 14.112z"></path>
</svg>
